<?xml version="1.0" encoding="iso-8859-1"?>
<!-- Uploaded to: SVG Repo, www.svgrepo.com, Generator: SVG Repo Mixer Tools -->
<svg height="800px" width="800px" version="1.1" id="Layer_1" xmlns="http://www.w3.org/2000/svg" xmlns:xlink="http://www.w3.org/1999/xlink" 
	 viewBox="0 0 512 512" xml:space="preserve">
<g>
	<path style="fill:#2D527C;" d="M285.135,365.416c-1.836,0-3.703-0.336-5.516-1.045c-7.793-3.05-11.638-11.837-8.589-19.63
		L402.16,9.634c3.048-7.792,11.837-11.638,19.629-8.587c7.793,3.05,11.638,11.837,8.589,19.63L299.249,355.782
		C296.91,361.762,291.19,365.416,285.135,365.416z"/>
	<path style="fill:#2D527C;" d="M402.66,512H200.432c-20.582,0-37.662-16.094-38.886-36.639L141.86,144.588
		c-0.635-10.669,3.204-21.25,10.534-29.03c7.33-7.778,17.662-12.24,28.351-12.24h241.603c10.69,0,21.023,4.462,28.352,12.241
		c7.33,7.78,11.169,18.359,10.533,29.028l-2.348,39.464c-0.497,8.352-7.627,14.709-16.023,14.225
		c-8.354-0.497-14.722-7.671-14.225-16.023l2.348-39.465c0.194-3.247-1.382-5.433-2.339-6.448c-0.957-1.015-3.048-2.719-6.298-2.719
		H180.745c-3.251,0-5.34,1.704-6.296,2.718c-0.958,1.015-2.535,3.204-2.341,6.449l19.686,330.772
		c0.273,4.563,4.066,8.139,8.639,8.139H402.66c4.572,0,8.364-3.575,8.637-8.139l13.002-218.457
		c0.497-8.354,7.708-14.714,16.023-14.223c8.354,0.497,14.722,7.671,14.225,16.024l-13.002,218.457
		C440.322,495.906,423.242,512,402.66,512z"/>
</g>
<path style="fill:#CEE8FA;" d="M155.483,28.835c49.504,0,89.634,40.13,89.634,89.634h-64.372c-13.702,0-24.575,11.54-23.762,25.218
	l3.824,64.245l0,0c-1.763,0.103-3.536,0.171-5.325,0.171c-49.504,0-89.634-40.13-89.634-89.634
	C65.849,68.967,105.979,28.835,155.483,28.835z"/>
<path style="fill:#2D527C;" d="M155.483,223.255c-57.779,0-104.784-47.005-104.784-104.784S97.704,13.685,155.483,13.685
	s104.784,47.007,104.784,104.786c0,8.368-6.784,15.15-15.15,15.15h-64.372c-3.251,0-5.34,1.704-6.296,2.718
	c-0.958,1.015-2.535,3.204-2.341,6.449l3.824,64.245c0.238,4.013-1.127,7.957-3.797,10.963c-2.671,3.006-6.425,4.827-10.44,5.062
	C159.439,223.19,157.407,223.255,155.483,223.255z M155.483,43.986C114.413,43.986,81,77.4,81,118.469
	c0,37.405,27.719,68.46,63.693,73.703l-2.833-47.586c-0.635-10.669,3.204-21.25,10.534-29.029c7.33-7.778,17.662-12.24,28.351-12.24
	h47.673C221.4,69.488,191.365,43.986,155.483,43.986z"/>
<path style="fill:#CEE8FA;" d="M437.336,291.093l-10.914,183.366c-0.748,12.575-11.164,22.389-23.762,22.389H200.431
	c-12.597,0-23.013-9.814-23.762-22.389l-10.914-183.366L437.336,291.093L437.336,291.093z"/>
<path style="fill:#2D527C;" d="M402.66,512H200.431c-20.582,0-37.661-16.094-38.885-36.639l-10.913-183.366
	c-0.248-4.166,1.233-8.252,4.097-11.29c2.863-3.038,6.852-4.76,11.026-4.76h271.58c4.174,0,8.165,1.723,11.026,4.76
	c2.862,3.038,4.345,7.124,4.097,11.29L441.545,475.36C440.322,495.906,423.242,512,402.66,512z M181.837,306.244l9.957,167.315
	c0.273,4.563,4.066,8.139,8.637,8.139H402.66c4.572,0,8.364-3.575,8.637-8.139l9.958-167.315H181.837L181.837,306.244z"/>
</svg>