<svg height="24" viewBox="0 0 24 24" width="24" xmlns="http://www.w3.org/2000/svg"><g fill="#141414" fill-rule="nonzero"><path d="m6 6c.27614237 0 .5.22385763.5.5s-.22385763.5-.5.5c-.55228475 0-1 .44771525-1 1 0 .27614237-.22385763.5-.5.5s-.5-.22385763-.5-.5c0-1.1045695.8954305-2 2-2z"/><path d="m6 7c-.27614237 0-.5-.22385763-.5-.5s.22385763-.5.5-.5h2.5c.27614237 0 .5.22385763.5.5s-.22385763.5-.5.5z"/><path d="m6 22c-.27614237 0-.5-.2238576-.5-.5s.22385763-.5.5-.5h12c.2761424 0 .5.2238576.5.5s-.2238576.5-.5.5z"/><path d="m15.5 7c-.2761424 0-.5-.22385763-.5-.5s.2238576-.5.5-.5h2.5c.2761424 0 .5.22385763.5.5s-.2238576.5-.5.5z"/><path d="m4 8c0-.27614237.22385763-.5.5-.5s.5.22385763.5.5v12c0 .2761424-.22385763.5-.5.5s-.5-.2238576-.5-.5z"/><path d="m19 8c0-.27614237.2238576-.5.5-.5s.5.22385763.5.5v12c0 .2761424-.2238576.5-.5.5s-.5-.2238576-.5-.5z"/><path d="m20 8c0 .27614237-.2238576.5-.5.5s-.5-.22385763-.5-.5c0-.55228475-.4477153-1-1-1-.2761424 0-.5-.22385763-.5-.5s.2238576-.5.5-.5c1.1045695 0 2 .8954305 2 2z"/><path d="m4 20c0-.2761424.22385763-.5.5-.5s.5.2238576.5.5c0 .5522847.44771525 1 1 1 .27614237 0 .5.2238576.5.5s-.22385763.5-.5.5c-1.1045695 0-2-.8954305-2-2z"/><path d="m18 22c-.2761424 0-.5-.2238576-.5-.5s.2238576-.5.5-.5c.5522847 0 1-.4477153 1-1 0-.2761424.2238576-.5.5-.5s.5.2238576.5.5c0 1.1045695-.8954305 2-2 2z"/><path d="m11.5.5c0-.27614237.2238576-.5.5-.5s.5.22385763.5.5v14c0 .2761424-.2238576.5-.5.5s-.5-.2238576-.5-.5z"/><path d="m12 1.20710678-2.64644661 2.64644661c-.19526215.19526215-.51184463.19526215-.70710678 0s-.19526215-.51184463 0-.70710678l2.99999999-3c.1952622-.19526215.5118446-.19526215.7071068 0l3 3c.1952621.19526215.1952621.51184463 0 .70710678-.1952622.19526215-.5118446.19526215-.7071068 0z"/></g></svg>